@startuml

title UML-діаграма сервісу дистанційного навчання

left to right direction

skinparam componentStyle uml1

node "<<Desktop>>" as dk {
    node "<<Operating System Windows/Linux>>" {
        node "<<Web Browser>>" {
            component [AngularJS]
        }
    }
}

interface Keyboard

interface Mouse

Keyboard -- dk

Mouse -- dk

node "<<Server 1>>" as serv1 {
	node "<<Operating System Linux>>" as l1 {
	    node "<<Application Server Node.js>>" {
		    component [NestJS]
		}
	}
}

dk -- serv1

node "<<Server 2>>" as serv2 {
	node "<<Operating System Linux>>" as l2 {
	    node "<<Database Server PostgreSQL>>" {
		    database DB
		}
	}
}

serv1 -- serv2

@enduml
